# xmcd CD database file
#
# Track frame offsets:
#	150
#	12699
#	27809
#	44867
#	58849
#	73014
#	90977
#	107029
#	124330
#	139212
#	146664
#
# Disc length: 2212 seconds
#
# Revision: 1
# Processed by: cddbd v1.5.2PL0 Copyright (c) Steve Scherf et al.
# Submitted via: CDex 1.51
#
DISCID=a808a20b
DTITLE=Mckinley Black - temporary longterm setbacks
DYEAR=2006
DGENRE=Blues
TTITLE0=kiss me now
TTITLE1=seashells and roses
TTITLE2=waterline
TTITLE3=my best
TTITLE4=beautiful
TTITLE5=cheyenne
TTITLE6=it's never too late
TTITLE7=valley of fire
TTITLE8=someday
TTITLE9=when we gonna learn
TTITLE10=rumors
EXTD=YEAR: 2006
EXTT0=
EXTT1=
EXTT2=
EXTT3=
EXTT4=
EXTT5=
EXTT6=
EXTT7=
EXTT8=
EXTT9=
EXTT10=
PLAYORDER=
